<?xml version="1.0" encoding="UTF-8" standalone="no"?>
<svg
   xmlns:dc="http://purl.org/dc/elements/1.1/"
   xmlns:cc="http://creativecommons.org/ns#"
   xmlns:rdf="http://www.w3.org/1999/02/22-rdf-syntax-ns#"
   xmlns:svg="http://www.w3.org/2000/svg"
   xmlns="http://www.w3.org/2000/svg"
   width="1200px"
   height="400px"
   viewBox="0 0 1200 400"
   preserveAspectRatio="xMinYMin meet"
   version="1.1"
   id="svg3799">
  <metadata
     id="metadata3805">
    <rdf:RDF>
      <cc:Work
         rdf:about="">
        <dc:format>image/svg+xml</dc:format>
        <dc:type
           rdf:resource="http://purl.org/dc/dcmitype/StillImage" />
        <dc:title></dc:title>
      </cc:Work>
    </rdf:RDF>
  </metadata>
  <defs
     id="defs3803" />
  <path
     style="fill:none;stroke:none"
     d="M 0,0 H 1200 V 400 H 0 Z"
     id="svgEditorBackground" />
  <path
     style="fill:#0099ff"
     d="M 385,205 A 180,180 0 0 1 205,385 180,180 0 0 1 25,205 180,180 0 0 1 205,25 180,180 0 0 1 385,205 Z"
     id="e1_circle" />
  <path
     style="fill:#ffffff"
     d="M 331,205 A 126,126 0 0 1 205,331 126,126 0 0 1 79,205 126,126 0 0 1 205,79 126,126 0 0 1 331,205 Z"
     id="e2_circle" />
  <g
     transform="translate(-0.05403458,3.7824208)"
     aria-label="FUND"
     style="font-style:normal;font-variant:normal;font-weight:bold;font-stretch:normal;font-size:204px;font-family:'Bitstream Charter';-inkscape-font-specification:'Bitstream Charter, Bold';font-variant-ligatures:normal;font-variant-caps:normal;font-variant-numeric:normal;font-feature-settings:normal;text-align:start;writing-mode:lr-tb;text-anchor:start;fill:#000000"
     id="e4_texte">
    <text
       id="text833"
       y="184.51863"
       x="418.70029"
       style="font-style:normal;font-weight:normal;font-size:40px;line-height:1.25;font-family:sans-serif;letter-spacing:0px;word-spacing:0px;fill:#000000;fill-opacity:1;stroke:none"
       xml:space="preserve"><tspan
         style="font-style:normal;font-variant:normal;font-weight:normal;font-stretch:normal;font-size:160px;font-family:Likhan;-inkscape-font-specification:Likhan"
         y="184.51863"
         x="418.70029"
         id="tspan831">Shuddhi</tspan><tspan
         style="font-style:normal;font-variant:normal;font-weight:normal;font-stretch:normal;font-size:160px;line-height:1.25;font-family:Sahadeva;-inkscape-font-specification:Sahadeva;word-spacing:4.72999907px"
         id="tspan835"
         y="281.6767"
         x="418.70029" /></text>
    <text
       id="text839"
       y="325.23264"
       x="423.41428"
       style="font-style:normal;font-weight:normal;font-size:160px;line-height:1.25;font-family:sans-serif;letter-spacing:0px;word-spacing:0px;fill:#000000;fill-opacity:1;stroke:none"
       xml:space="preserve"><tspan
         style="font-style:normal;font-variant:normal;font-weight:normal;font-stretch:normal;font-size:160px;font-family:Likhan;-inkscape-font-specification:Likhan;letter-spacing:0px"
         y="325.23264"
         x="423.41428"
         id="tspan837">Trust</tspan></text>
  </g>
</svg>
